<svg width="24" height="24" viewBox="0 0 24 24" fill="none" xmlns="http://www.w3.org/2000/svg">
<path fill-rule="evenodd" clip-rule="evenodd" d="M10.0487 5.373L5.22066 11.373C4.92167 11.744 4.92667 12.274 5.23166 12.64L10.2317 18.64C10.4297 18.877 10.7137 19 11.0007 19C11.2257 19 11.4527 18.924 11.6397 18.768C12.0647 18.415 12.1217 17.784 11.7677 17.36L7.29167 11.989L11.6077 6.627C11.9537 6.197 11.8857 5.567 11.4547 5.221C11.0247 4.874 10.3957 4.943 10.0487 5.373ZM18.4548 5.221C18.0248 4.875 17.3958 4.943 17.0488 5.373L12.2208 11.373C11.9228 11.744 11.9268 12.274 12.2318 12.64L17.2318 18.64C17.4298 18.877 17.7138 19 18.0008 19C18.2258 19 18.4528 18.924 18.6398 18.768C19.0648 18.415 19.1218 17.784 18.7678 17.36L14.2928 11.989L18.6078 6.627C18.9538 6.197 18.8848 5.567 18.4548 5.221Z" fill="#B5BACB"/>
</svg>
