<svg width="16" height="16" viewBox="0 0 16 16" fill="none" xmlns="http://www.w3.org/2000/svg">
<path fill-rule="evenodd" clip-rule="evenodd" d="M3.33329 8.66683H11.2433L8.82129 11.5735C8.58529 11.8562 8.62396 12.2768 8.90663 12.5122C9.18996 12.7482 9.60996 12.7095 9.84596 12.4268L13.1793 8.42683C13.2053 8.3955 13.218 8.35883 13.2373 8.32416C13.2533 8.29616 13.2726 8.27216 13.2846 8.2415C13.3146 8.16483 13.3326 8.08416 13.3326 8.00283C13.3326 8.00216 13.3333 8.00083 13.3333 8.00016C13.3333 7.9995 13.3326 7.99816 13.3326 7.9975C13.3326 7.91616 13.3146 7.8355 13.2846 7.75883C13.2726 7.72816 13.2533 7.70416 13.2373 7.67616C13.218 7.6415 13.2053 7.60483 13.1793 7.5735L9.84596 3.5735C9.71329 3.4155 9.52396 3.3335 9.33329 3.3335C9.18263 3.3335 9.03129 3.38416 8.90663 3.48816C8.62396 3.7235 8.58529 4.14416 8.82129 4.42683L11.2433 7.3335H3.33329C2.96529 7.3335 2.66663 7.63216 2.66663 8.00016C2.66663 8.36816 2.96529 8.66683 3.33329 8.66683Z" fill="currentColor"/>
</svg>
