<svg width="24" height="24" viewBox="0 0 24 24" fill="none" xmlns="http://www.w3.org/2000/svg">
<path d="M7.17814 9.94909C8.70847 9.94909 9.94905 8.70851 9.94905 7.17818C9.94905 5.64785 8.70847 4.40727 7.17814 4.40727C5.6478 4.40727 4.40723 5.64785 4.40723 7.17818C4.40723 8.70851 5.6478 9.94909 7.17814 9.94909Z" fill="#4F71EC"/>
<path d="M7.17814 19.5927C8.70847 19.5927 9.94905 18.3522 9.94905 16.8218C9.94905 15.2915 8.70847 14.0509 7.17814 14.0509C5.6478 14.0509 4.40723 15.2915 4.40723 16.8218C4.40723 18.3522 5.6478 19.5927 7.17814 19.5927Z" fill="#4F71EC"/>
<path d="M16.8218 9.94909C18.3521 9.94909 19.5927 8.70851 19.5927 7.17818C19.5927 5.64785 18.3521 4.40727 16.8218 4.40727C15.2915 4.40727 14.0509 5.64785 14.0509 7.17818C14.0509 8.70851 15.2915 9.94909 16.8218 9.94909Z" fill="#4F71EC"/>
<path d="M16.8218 19.5927C18.3521 19.5927 19.5927 18.3522 19.5927 16.8218C19.5927 15.2915 18.3521 14.0509 16.8218 14.0509C15.2915 14.0509 14.0509 15.2915 14.0509 16.8218C14.0509 18.3522 15.2915 19.5927 16.8218 19.5927Z" fill="#4F71EC"/>
</svg>
