<svg width="16" height="16" viewBox="0 0 16 16" fill="none" xmlns="http://www.w3.org/2000/svg">
<path d="M1.2521 3.91421L0.195435 2.85754L1.1381 1.91488L2.19543 2.97154C2.32235 3.0929 2.49117 3.16062 2.66677 3.16062C2.84236 3.16062 3.01119 3.0929 3.1381 2.97154L5.52877 0.581543L6.47143 1.52421L4.08077 3.91421C3.89505 4.09996 3.67455 4.24731 3.43188 4.34784C3.18921 4.44837 2.92911 4.50012 2.66643 4.50012C2.40376 4.50012 2.14366 4.44837 1.90099 4.34784C1.65832 4.24731 1.43782 4.09996 1.2521 3.91421ZM8.0001 3.83354H16.0001V2.50021H8.0001V3.83354ZM2.66677 9.83354C2.92951 9.83429 3.18979 9.78288 3.43251 9.68229C3.67523 9.5817 3.89558 9.43393 4.08077 9.24754L6.47143 6.85754L5.52877 5.91488L3.1381 8.30488C3.01119 8.42623 2.84236 8.49396 2.66677 8.49396C2.49117 8.49396 2.32235 8.42623 2.19543 8.30488L1.1381 7.24821L0.195435 8.19088L1.2521 9.24754C1.43746 9.43389 1.65793 9.58163 1.90075 9.68221C2.14358 9.7828 2.40394 9.83423 2.66677 9.83354ZM8.0001 9.16688H16.0001V7.83354H8.0001V9.16688ZM2.66677 15.1669C2.92951 15.1676 3.18979 15.1162 3.43251 15.0156C3.67523 14.915 3.89558 14.7673 4.08077 14.5809L6.47143 12.1909L5.52877 11.2482L3.1381 13.6382C3.01119 13.7596 2.84236 13.8273 2.66677 13.8273C2.49117 13.8273 2.32235 13.7596 2.19543 13.6382L1.1381 12.5815L0.195435 13.5242L1.2521 14.5809C1.43746 14.7672 1.65793 14.915 1.90075 15.0155C2.14358 15.1161 2.40394 15.1676 2.66677 15.1669ZM8.0001 14.5002H16.0001V13.1669H8.0001V14.5002Z" fill="#4F71EC"/>
</svg>
