<svg width="16" height="16" viewBox="0 0 16 16" fill="none" xmlns="http://www.w3.org/2000/svg">
<path d="M6.66667 16H0V14.6667H6.66667V16ZM5.33333 12H0V13.3333H5.33333V12ZM4 9.33333H0V10.6667H4V9.33333ZM8 0C5.87897 0.00229405 3.84547 0.845885 2.34568 2.34568C0.845885 3.84547 0.00229405 5.87897 0 8H1.33333C1.33333 6.68146 1.72433 5.39253 2.45687 4.2962C3.18941 3.19987 4.2306 2.34539 5.44878 1.8408C6.66695 1.33622 8.0074 1.2042 9.3006 1.46143C10.5938 1.71867 11.7817 2.3536 12.714 3.28595C13.6464 4.21831 14.2813 5.40619 14.5386 6.6994C14.7958 7.9926 14.6638 9.33305 14.1592 10.5512C13.6546 11.7694 12.8001 12.8106 11.7038 13.5431C10.6075 14.2757 9.31854 14.6667 8 14.6667V16C10.1217 16 12.1566 15.1571 13.6569 13.6569C15.1571 12.1566 16 10.1217 16 8C16 5.87827 15.1571 3.84344 13.6569 2.34315C12.1566 0.842855 10.1217 0 8 0V0ZM7.33333 4.66667V8.276L9.52867 10.4713L10.4713 9.52867L8.66667 7.724V4.66667H7.33333Z" fill="#4F71EC"/>
</svg>
