<svg width="16" height="16" viewBox="0 0 16 16" fill="none" xmlns="http://www.w3.org/2000/svg">
<path d="M16 5.33735L13.3333 7.32535V5.99935C13.3333 5.46892 13.1226 4.96021 12.7475 4.58514C12.3725 4.21006 11.8638 3.99935 11.3333 3.99935H9.94333L6.61 0.666016H0V1.99935H6.05733L8.05733 3.99935H2C1.46957 3.99935 0.960859 4.21006 0.585786 4.58514C0.210714 4.96021 0 5.46892 0 5.99935L0 15.9993H13.3333V12.6733L16 14.6613V5.33735ZM12 14.666H1.33333V5.99935C1.33333 5.82254 1.40357 5.65297 1.5286 5.52794C1.65362 5.40292 1.82319 5.33268 2 5.33268H11.3333C11.5101 5.33268 11.6797 5.40292 11.8047 5.52794C11.9298 5.65297 12 5.82254 12 5.99935V14.666ZM14.6667 12.004L13.3333 11.01V8.98868L14.6667 7.99468V12.004Z" fill="#4F71EC"/>
</svg>
